<?xml version="1.0" standalone="no"?>
<svg xmlns:xlink="http://www.w3.org/1999/xlink" id="wave" style="transform:rotate(0deg); transition: 0.3s" viewBox="0 0 1440 230" version="1.1" xmlns="http://www.w3.org/2000/svg"><defs><linearGradient id="sw-gradient-0" x1="0" x2="0" y1="1" y2="0"><stop stop-color="rgba(146.101, 0.782, 246.213, 1)" offset="0%"/><stop stop-color="rgba(97.614, 11, 255, 0.39)" offset="100%"/></linearGradient></defs><path style="transform:translate(0, 0px); opacity:1" fill="url(#sw-gradient-0)" d="M0,46L10,42.2C20,38,40,31,60,30.7C80,31,100,38,120,46C140,54,160,61,180,80.5C200,100,220,130,240,130.3C260,130,280,100,300,84.3C320,69,340,69,360,72.8C380,77,400,84,420,107.3C440,130,460,169,480,153.3C500,138,520,69,540,42.2C560,15,580,31,600,61.3C620,92,640,138,660,157.2C680,176,700,169,720,161C740,153,760,146,780,145.7C800,146,820,153,840,141.8C860,130,880,100,900,72.8C920,46,940,23,960,26.8C980,31,1000,61,1020,69C1040,77,1060,61,1080,72.8C1100,84,1120,123,1140,138C1160,153,1180,146,1200,153.3C1220,161,1240,184,1260,168.7C1280,153,1300,100,1320,95.8C1340,92,1360,138,1380,130.3C1400,123,1420,61,1430,30.7L1440,0L1440,230L1430,230C1420,230,1400,230,1380,230C1360,230,1340,230,1320,230C1300,230,1280,230,1260,230C1240,230,1220,230,1200,230C1180,230,1160,230,1140,230C1120,230,1100,230,1080,230C1060,230,1040,230,1020,230C1000,230,980,230,960,230C940,230,920,230,900,230C880,230,860,230,840,230C820,230,800,230,780,230C760,230,740,230,720,230C700,230,680,230,660,230C640,230,620,230,600,230C580,230,560,230,540,230C520,230,500,230,480,230C460,230,440,230,420,230C400,230,380,230,360,230C340,230,320,230,300,230C280,230,260,230,240,230C220,230,200,230,180,230C160,230,140,230,120,230C100,230,80,230,60,230C40,230,20,230,10,230L0,230Z"/><defs><linearGradient id="sw-gradient-1" x1="0" x2="0" y1="1" y2="0"><stop stop-color="rgba(147.806, 13.596, 227.999, 1)" offset="0%"/><stop stop-color="rgba(130.675, 11, 255, 0.38)" offset="100%"/></linearGradient></defs><path style="transform:translate(0, 50px); opacity:0.9" fill="url(#sw-gradient-1)" d="M0,207L10,203.2C20,199,40,192,60,168.7C80,146,100,107,120,92C140,77,160,84,180,103.5C200,123,220,153,240,164.8C260,176,280,169,300,157.2C320,146,340,130,360,130.3C380,130,400,146,420,153.3C440,161,460,161,480,157.2C500,153,520,146,540,153.3C560,161,580,184,600,180.2C620,176,640,146,660,141.8C680,138,700,161,720,149.5C740,138,760,92,780,84.3C800,77,820,107,840,111.2C860,115,880,92,900,99.7C920,107,940,146,960,161C980,176,1000,169,1020,161C1040,153,1060,146,1080,141.8C1100,138,1120,138,1140,134.2C1160,130,1180,123,1200,118.8C1220,115,1240,115,1260,130.3C1280,146,1300,176,1320,180.2C1340,184,1360,161,1380,130.3C1400,100,1420,61,1430,42.2L1440,23L1440,230L1430,230C1420,230,1400,230,1380,230C1360,230,1340,230,1320,230C1300,230,1280,230,1260,230C1240,230,1220,230,1200,230C1180,230,1160,230,1140,230C1120,230,1100,230,1080,230C1060,230,1040,230,1020,230C1000,230,980,230,960,230C940,230,920,230,900,230C880,230,860,230,840,230C820,230,800,230,780,230C760,230,740,230,720,230C700,230,680,230,660,230C640,230,620,230,600,230C580,230,560,230,540,230C520,230,500,230,480,230C460,230,440,230,420,230C400,230,380,230,360,230C340,230,320,230,300,230C280,230,260,230,240,230C220,230,200,230,180,230C160,230,140,230,120,230C100,230,80,230,60,230C40,230,20,230,10,230L0,230Z"/></svg>