<?xml version="1.0" standalone="no"?>
<svg xmlns:xlink="http://www.w3.org/1999/xlink" id="wave" style="transform:rotate(0deg); transition: 0.3s" viewBox="0 0 1440 240" version="1.1" xmlns="http://www.w3.org/2000/svg"><defs><linearGradient id="sw-gradient-0" x1="0" x2="0" y1="1" y2="0"><stop stop-color="rgba(104.532, 0.782, 246.213, 1)" offset="0%"/><stop stop-color="rgba(97.614, 11, 255, 0.39)" offset="100%"/></linearGradient></defs><path style="transform:translate(0, 0px); opacity:1" fill="url(#sw-gradient-0)" d="M0,144L21.8,152C43.6,160,87,176,131,160C174.5,144,218,96,262,84C305.5,72,349,96,393,100C436.4,104,480,88,524,100C567.3,112,611,152,655,172C698.2,192,742,192,785,184C829.1,176,873,160,916,144C960,128,1004,112,1047,124C1090.9,136,1135,176,1178,160C1221.8,144,1265,72,1309,60C1352.7,48,1396,96,1440,120C1483.6,144,1527,144,1571,156C1614.5,168,1658,192,1702,176C1745.5,160,1789,104,1833,96C1876.4,88,1920,128,1964,120C2007.3,112,2051,56,2095,44C2138.2,32,2182,64,2225,92C2269.1,120,2313,144,2356,156C2400,168,2444,168,2487,140C2530.9,112,2575,56,2618,44C2661.8,32,2705,64,2749,96C2792.7,128,2836,160,2880,176C2923.6,192,2967,192,3011,188C3054.5,184,3098,176,3120,172L3141.8,168L3141.8,240L3120,240C3098.2,240,3055,240,3011,240C2967.3,240,2924,240,2880,240C2836.4,240,2793,240,2749,240C2705.5,240,2662,240,2618,240C2574.5,240,2531,240,2487,240C2443.6,240,2400,240,2356,240C2312.7,240,2269,240,2225,240C2181.8,240,2138,240,2095,240C2050.9,240,2007,240,1964,240C1920,240,1876,240,1833,240C1789.1,240,1745,240,1702,240C1658.2,240,1615,240,1571,240C1527.3,240,1484,240,1440,240C1396.4,240,1353,240,1309,240C1265.5,240,1222,240,1178,240C1134.5,240,1091,240,1047,240C1003.6,240,960,240,916,240C872.7,240,829,240,785,240C741.8,240,698,240,655,240C610.9,240,567,240,524,240C480,240,436,240,393,240C349.1,240,305,240,262,240C218.2,240,175,240,131,240C87.3,240,44,240,22,240L0,240Z"/></svg>